<svg id="Group_54" data-name="Group 54" xmlns="http://www.w3.org/2000/svg" width="28.008" height="28" viewBox="0 0 28.008 28">
  <g id="Group_53" data-name="Group 53" transform="translate(0 0)">
    <path id="Path_291" data-name="Path 291" d="M26.477,10.355A5.006,5.006,0,0,0,24.9,9.324,11.05,11.05,0,0,0,3.343,8.206a1.645,1.645,0,0,0-1.7,1.642v4.318a1.1,1.1,0,0,0-.656,1V17.58A1.1,1.1,0,0,0,0,18.668v7.767a1.643,1.643,0,0,0,1.641,1.641H6.673a1.643,1.643,0,0,0,1.641-1.641V20.6a10.909,10.909,0,0,0,4.048,1.453v2.742H12.1a2.741,2.741,0,0,0-2.738,2.738.547.547,0,0,0,.547.547H18.1a.547.547,0,0,0,.547-.547,2.741,2.741,0,0,0-2.738-2.738h-.264V22.049a10.908,10.908,0,0,0,4.283-1.6v5.466a2.164,2.164,0,0,0,2.161,2.161H23.7a2.164,2.164,0,0,0,2.161-2.161V19.473l1.626-3.3A5,5,0,0,0,26.477,10.355ZM2.735,9.848a.547.547,0,0,1,.805-.482l1.75.938a.546.546,0,0,1,.289.482v3.288H2.735Zm-.656,5.32H6.236v2.407H2.079ZM7.22,26.436a.548.548,0,0,1-.547.547H1.641a.548.548,0,0,1-.547-.547V18.669H7.22v7.767Zm8.688-.55a1.647,1.647,0,0,1,1.551,1.1H10.547a1.647,1.647,0,0,1,1.551-1.1h3.81Zm-2.452-1.094V22.156c.18.009.361.014.543.014h.15c.134,0,.268-.006.4-.013v2.636Zm-5.142-5.5v-.623A1.1,1.1,0,0,0,7.33,17.58V15.168a1.1,1.1,0,0,0-.656-1v-3.38A1.638,1.638,0,0,0,5.807,9.34l-1.43-.766A9.957,9.957,0,0,1,23.731,9a5.014,5.014,0,0,0-1.57.016A8.425,8.425,0,0,0,6.776,6.791a.547.547,0,1,0,.938.563A7.323,7.323,0,0,1,16.036,4.08L12,8.117a.547.547,0,1,0,.774.774l4.382-4.382a7.4,7.4,0,0,1,1.895,1.3L12.022,12.84a.547.547,0,1,0,.774.774l6.991-6.991a7.264,7.264,0,0,1,1.321,2.69,5.005,5.005,0,0,0-1.6,1.042l-.062.06a5.017,5.017,0,0,0-1.067,5.7l.3.646a7.332,7.332,0,0,1-8.648.518.547.547,0,1,0-.594.919,8.426,8.426,0,0,0,9.714-.414l.656,1.422A10.029,10.029,0,0,1,8.314,19.291Zm16.455,6.624A1.068,1.068,0,0,1,23.7,26.983H22.088a1.068,1.068,0,0,1-1.067-1.067V22.49h3.748v3.426Zm0-4.52H21.021V19.883h3.748Zm1.739-5.706-1.527,3.1H24.7V16.542a.547.547,0,0,0-1.094,0v2.246H20.819l-1.444-3.129a3.922,3.922,0,0,1,.834-4.458l.062-.06a3.917,3.917,0,0,1,6.237,4.548Z" transform="translate(0 -0.077)" fill="#9e6ae4"/>
  </g>
</svg>
