<?xml version="1.0" encoding="iso-8859-1"?>
<!-- Generator: Adobe Illustrator 19.0.0, SVG Export Plug-In . SVG Version: 6.00 Build 0)  -->
<svg version="1.1" id="Capa_1" xmlns="http://www.w3.org/2000/svg" xmlns:xlink="http://www.w3.org/1999/xlink" x="0px" y="0px"
	 viewBox="0 0 512 512" style="enable-background:new 0 0 512 512;" xml:space="preserve">
<g>
	<g>
		<path d="M468.586,43.415C440.589,15.419,403.367,0,363.774,0c-39.592,0-76.816,15.419-104.811,43.415L43.414,258.963
			C15.419,286.959,0,324.181,0,363.774c0,39.593,15.419,76.815,43.415,104.811C71.412,496.581,108.634,512,148.226,512
			c39.591,0,76.816-15.419,104.811-43.415l215.549-215.549C496.582,225.04,512,187.818,512,148.225
			C512,108.633,496.582,71.41,468.586,43.415z M231.552,447.099c-22.258,22.258-51.849,34.515-83.327,34.515
			c-31.475,0-61.068-12.258-83.326-34.515h-0.001c-22.255-22.256-34.513-51.849-34.513-83.326c0-31.476,12.258-61.068,34.514-83.326
			l97.031-97.031l166.652,166.652L231.552,447.099z M447.101,231.552l-97.031,97.031L183.417,161.931L280.449,64.9
			c22.977-22.976,53.147-34.459,83.327-34.459c30.173,0,60.356,11.49,83.327,34.459c22.257,22.258,34.514,51.849,34.514,83.326
			C481.616,179.702,469.357,209.294,447.101,231.552z"/>
	</g>
</g>
<g>
</g>
<g>
</g>
<g>
</g>
<g>
</g>
<g>
</g>
<g>
</g>
<g>
</g>
<g>
</g>
<g>
</g>
<g>
</g>
<g>
</g>
<g>
</g>
<g>
</g>
<g>
</g>
<g>
</g>
</svg>
